<?xml version="1.0" encoding="UTF-8"?><svg width="300px" height="300px" viewBox="0 0 300 300" version="1.1" xmlns="http://www.w3.org/2000/svg" xmlns:xlink="http://www.w3.org/1999/xlink" x="0px" y="0px" fill="#40587C" fill-rule="evenodd"><path d="M223.265 261.521l-30.434 15.058 1.788 3.603 30.434-15.058zM213.139 256.763l-7.609 3.765 1.789 3.603 7.609-3.765zM246.419 240.046L219.29 253.47l1.789 3.603 27.129-13.423zM66.953 165.62L34.63 181.611l1.789 3.603 32.323-15.993zM43.241 131.665L0 153.303l1.742 3.47 43.241-21.637zM297.384 112.456l-21.237 10.508 1.789 3.603 21.237-10.508zM292.766 128.317l-24.476 12.111 1.789 3.603 24.476-12.11z"/></svg>